<svg xmlns="http://www.w3.org/2000/svg" width="30" height="30" viewBox="0 0 30 30">
  <path id="Icon" d="M61.995,1385.072c0,.517,0,.517-.517.517l-3.621.517c0,1.034-.517,1.552-.517,2.069a9.081,9.081,0,0,0,2.069,2.586v1.035c-.517.517-3.1,3.621-4.138,3.621l-.517-.517-2.586-2.069c-.517.517-1.035.517-1.552,1.035-.517,1.034-.517,2.586-1.034,3.621a.507.507,0,0,1-.517.517H44.926a1.806,1.806,0,0,1-1.034-.517l-.517-3.621c-.517-.517-1.034-.517-1.552-1.035l-2.586,2.069-.517.517c-.517,0-.517,0-.517-.517-1.035-1.034-2.586-2.069-3.621-3.1v-1.035a9.078,9.078,0,0,0,2.069-2.586c0-.517-.517-1.034-.517-2.069l-3.621-.517a.507.507,0,0,1-.517-.517v-4.655a.507.507,0,0,1,.517-.517l3.621-.517c0-.517.517-1.035.517-2.069-.517-.517-1.034-1.552-2.069-2.586v-1.034c.517-.517,3.1-3.1,4.138-3.1h.517l2.586,2.069c.517,0,1.035-.517,1.552-.517,0-1.552.517-2.586.517-3.621,0-.517.517-.517,1.034-.517h4.138c.517,0,.517,0,.517.517l1.034,3.621c.517,0,1.035.517,1.552.517l2.586-2.069h1.035c1.035,1.035,2.586,2.069,3.1,3.621h.517c0,.517,0,.517-.517.517a5.164,5.164,0,0,1-2.069,2.586c.517,1.034,1.035,1.552,1.035,2.069l3.621.517c.517,0,.517.517.517,1.034v4.138Zm-15-7.241A5.183,5.183,0,0,0,41.822,1383c0,2.586,2.586,4.655,5.172,4.655s5.173-2.069,5.173-4.655a5.183,5.183,0,0,0-5.173-5.172Z" transform="translate(-31.995 -1368.003)" fill="#fff"/>
</svg>
