<svg xmlns="http://www.w3.org/2000/svg" width="22.775" height="22.776" viewBox="0 0 22.775 22.776">
  <path id="Icon" d="M16.92,22.776v-7.92H12.208v7.92H2.174l-.136-.019L1.925,22.7l-.091-.09-.06-.109-.022-.129V13.637l9.205-8.575,9.19,8.575v8.734l-.022.129-.06.109-.09.09-.121.059-.136.019ZM4.978,18.546H9.23v-3.69H4.978ZM1.022,11.8l-.18-.037L.669,11.7.5,11.606.353,11.5.21,11.335l-.1-.16L.037,11,0,10.817v-.192l.037-.185.068-.173.1-.173.143-.148,3.89-3.509V2.627l.015-.179.06-.16.09-.148.113-.13.15-.105.158-.08.188-.055.2-.013.2.013.181.055.173.08.143.105.112.13.091.148.06.16.015.179V4.7L11.391,0,22.429,9.948l.135.148.105.173.076.173.03.185v.192l-.03.178-.076.179-.105.16-.135.161-.174.123-.18.092-.2.068-.2.024h-.211l-.2-.024-.2-.068-.188-.092-.166-.123L11.391,3.1,2.068,11.5l-.15.111-.166.093-.173.061-.188.037-.181.013Z" fill="#151c48"/>
</svg>
