<svg xmlns="http://www.w3.org/2000/svg" width="42.338" height="35.709" viewBox="0 0 42.338 35.709">
  <g id="Group_1" data-name="Group 1" transform="translate(8.93 10.062)">
    <path id="Path_1" data-name="Path 1" d="M15.652,3.088C12.735,4.765,8.041,7.459,5.223,9.075S.087,12.029.07,12.048,1.6,13.183,3.517,14.53l3.476,2.445.02.325c.01.179.047,1.069.077,1.978l.06,1.649-.1.188A1.173,1.173,0,0,0,7,22.194a.974.974,0,0,1,.07.316c0,.075-.06.81-.133,1.635-.3,3.42-.452,5.521-.4,5.653a2.745,2.745,0,0,0,.622.683,1.936,1.936,0,0,0,.366.193,1.649,1.649,0,0,0,1.3-.141l.086-.1-.053-.542c-.163-1.625-.253-3.406-.276-5.507a10.877,10.877,0,0,1,.027-1.771c.243-.556.243-.556.24-.824a1.28,1.28,0,0,0-.1-.5l-.1-.24.077-1.31c.04-.721.083-1.328.09-1.347a.073.073,0,0,1,.067-.038c.027,0,2.771,1.931,6.1,4.287s6.078,4.287,6.1,4.287,3.383-2.369,7.458-5.271,8.869-6.3,10.648-7.565,3.227-2.313,3.21-2.332S21,.031,20.975.036C20.965.036,18.569,1.411,15.652,3.088Z" transform="translate(-9 -10.097)" fill="#fff"/>
    <path id="Path_2" data-name="Path 2" d="M6.8,14.165c-.007.029-.092.848-.181,1.821-.469,4.98-.547,5.774-.613,6.456a7.294,7.294,0,0,0-.055.777c.03.058.861.69,1.422,1.089a23.015,23.015,0,0,0,5.157,2.777,17.278,17.278,0,0,0,5.223,1.027,11.266,11.266,0,0,0,1.995-.137,19.168,19.168,0,0,0,8.127-3.105,27.815,27.815,0,0,0,2.3-1.646,2.467,2.467,0,0,0-.018-.378c-.048-.532-.7-8.043-.72-8.334-.011-.137-.03-.274-.037-.3s-1.777.939-5.622,3.109l-5.6,3.168L12.513,17.3c-3.11-1.75-5.667-3.184-5.678-3.184S6.806,14.14,6.8,14.165Z" transform="translate(-5.824 -2.471)" fill="#fff"/>
  </g>
</svg>
