<svg xmlns="http://www.w3.org/2000/svg" width="20.098" height="23.364" viewBox="0 0 20.098 23.364">
  <path id="Icon" d="M9.038,23.352l-.676-.028-.652-.05-.629-.062-.611-.079-.576-.084-.559-.1-.529-.112L4.3,22.722,3.811,22.6l-.454-.135-.431-.129-.4-.13-.378-.13L1.8,21.947l-.32-.123-.285-.13L.93,21.576.7,21.469l-.2-.1-.175-.085L.173,21.2l-.1-.062-.082-.05-.052-.029-.012-.005L-.1,20.907l-.029-.185-.023-.186-.023-.208-.017-.208-.023-.208-.023-.2-.012-.18-.017-.168-.006-.13-.005-.107-.012-.068V19.04L-.3,18.866-.3,18.674v-.2l.005-.208.018-.219.017-.22.041-.237.047-.23.058-.219.081-.23.094-.22.116-.208.139-.2.152-.191.175-.163.2-.158.233-.13.25-.113.279-.085.373-.1.373-.107.355-.123L3.054,15l.332-.129.32-.135.3-.135.3-.13.274-.135.256-.123.239-.13.215-.118.2-.113.18-.1.146-.085.128-.079.1-.061.07-.051.047-.028.012-.011,1.595,4.881.309.91.005-.011.262.776.838-2.3-.2-.287L8.8,17.122l-.134-.242-.111-.23-.087-.213-.058-.185-.035-.175-.018-.163.012-.146.018-.124.046-.118.059-.1.064-.09.07-.078.087-.068.1-.062.093-.045.1-.04.105-.033.1-.028.093-.023.094-.017.081-.005.082-.005.064-.006h.238l.064.006.076.005.087.005.094.017.093.023.1.028.1.033.1.04.1.045.094.062.087.068.069.078.065.09.058.1.047.118.023.124.005.146-.017.163-.035.175-.059.185-.087.213-.1.23-.139.242-.175.275-.2.287.844,2.3.256-.776.012.011.3-.91,1.595-4.881.012.011.046.028.07.051.105.061.128.079.145.085.181.1.2.113.215.118.238.13.257.123.274.135.3.13.308.135.314.135.338.129.343.119.356.123.373.107.373.1.279.085.256.113.232.13.2.158.175.163.151.191.139.2.117.208.093.22.082.225.058.23.053.219.034.237.023.22.012.219.006.214v.2l-.006.192-.005.174v.022l-.006.068-.012.107-.012.13-.017.168-.012.18-.023.2-.023.208-.017.208-.023.208-.023.186-.029.185-.023.151-.017.005-.047.04-.076.04-.116.062-.14.078-.175.09-.2.1-.233.107-.267.118-.292.13-.314.123-.349.135-.378.13-.4.135-.431.13-.454.129-.489.118-.507.119-.535.112-.559.1-.581.1-.606.073-.623.057-.663.05-.67.028-.7.012Zm.3-9.941-.391-.055-.391-.105-.379-.144-.366-.177-.337-.2L7.16,12.5l-.289-.249-.27-.266-.247-.283-.216-.288-.2-.3-.162-.305-.144-.31-.121-.3-.09-.3-.054-.288-.078-.016-.085-.039L5.129,9.5l-.09-.088-.091-.122-.1-.149-.091-.183-.1-.232-.1-.266-.1-.315-.084-.277-.054-.239L4.288,7.4,4.263,7.21V7.043L4.281,6.9l.03-.121.037-.105L4.4,6.6l.054-.061.066-.055.072-.033.078-.028.078-.011h.168L4.8,6.086,4.732,5.77,4.66,5.415l-.042-.354-.024-.338L4.6,4.386l.049-.327.066-.327.114-.355.144-.338.163-.316.192-.3.211-.277.234-.255.24-.238L6.277,1.4l.3-.233L6.884.947,7.2.747l.264-.16L7.755.443l.3-.133L8.362.2,8.7.111,9.048.049,9.414.016,9.78,0l.355.011.337.028.313.044.294.072.276.077.252.089.235.1.216.111L12.3.67l.217.139L12.7.947l.156.127.132.133.114.116.09.105.067.089.054.06.024.045.012.016h.03l.037.011.054.012.066.016.078.017.084.039.078.039.1.049.1.061.1.077.1.088.108.1.1.116.09.139.09.155.078.172.078.194.066.215.054.239.042.26.024.288.005.31-.005.338-.024.371-.042.4-.066.427-.084.316-.109.321h.163l.078.011.077.028.072.033.067.055.06.061.048.083.042.105.023.121.019.139V7.21l-.019.193-.036.221-.059.239-.078.277-.1.315-.1.266-.1.232-.1.183-.09.149-.09.122-.09.088-.078.056-.084.039-.073.016-.072.288-.09.3-.12.3-.139.3-.175.3-.192.3-.229.293-.247.277-.27.271L12.3,12.5l-.312.227-.337.2L11.3,13.1l-.384.144-.379.105-.4.06-.4.023Z" transform="translate(0.304)" fill="#fff"/>
</svg>
