<svg xmlns="http://www.w3.org/2000/svg" width="25.455" height="21.44" viewBox="0 0 25.455 21.44">
  <path id="Icon" d="M19.724,21.44l-.115-.015-.123-.046-.092-.068-.069-.1-.046-.107-.015-.115v-10.3l3.82-3.772.069.068.061.061.086.077.092.084V20.989l-.015.122-.046.107-.077.092-.092.068-.108.046-.131.015Zm-6.184,0-.123-.015L13.3,21.38l-.093-.068-.068-.1-.054-.105L13.072,21V16.364l.246-.164.215-.2L17.2,12.449V21l-.015.12-.046.105-.069.09-.1.068-.108.044-.115.015Zm-5.512,0-.123-.015L7.8,21.38l-.093-.068-.076-.1-.047-.105L7.567,21V13.832l2.2,2.146.238.2.246.167.261.15.285.113.284.09.3.053.315.022V21l-.015.121-.046.105-.077.091-.092.068-.116.045-.115.015Zm-5.5,0L2.4,21.424l-.108-.045L2.2,21.311l-.077-.1-.046-.106-.015-.113V16.919l.33-.038.33-.084.308-.113.3-.159.277-.19.261-.22,2.321-2.283v7.16l-.015.121-.046.106-.069.091-.092.068-.115.045-.123.015ZM1.317,15.2l-.2-.045-.184-.076-.168-.105-.154-.129-.245-.234-.153-.181-.107-.189-.076-.2L0,13.827v-.212L.031,13.4l.076-.2L.214,13l.153-.174L5.743,7.57,5.9,7.442l.168-.106.184-.076.2-.045.2-.015.2.015.2.045.192.076.168.106.153.128,4.036,3.955,8.968-8.807-.781-.762-.367-.37-.054-.052-.053-.068-.061-.076-.054-.09-.046-.1-.039-.113L19.1.958,19.13.815l.054-.151.068-.121L19.344.43l.107-.09.122-.06.115-.038L19.8.219l.114-.007L20.033.2,22.254.1,24.483,0h.084l.2.015.184.046.16.075.131.106.1.128.068.167.039.181.007.211-.068,1.418-.138,2.846-.008.136-.031.15-.046.144-.076.15-.122.136-.1.084-.115.075-.122.053-.122.038-.122.008-.131-.015-.13-.038-.1-.053-.1-.068-.077-.076-.076-.068L22.63,4.732,12.506,14.665l-.161.129-.176.105-.184.076-.192.045-.2.015-.214-.015-.192-.045L11,14.9l-.168-.105-.153-.129L6.646,10.71,2.427,14.846l-.153.129-.176.105-.184.076-.192.045-.2.015Z" fill="#fff"/>
</svg>
