<svg version="1.1" xmlns="http://www.w3.org/2000/svg" xmlns:xlink="http://www.w3.org/1999/xlink" width="20px" height="18px" viewBox="0,0,255.9978,230.39474"><g fill="none" fill-rule="evenodd" stroke="none" stroke-width="1" stroke-linecap="butt" stroke-linejoin="miter" stroke-miterlimit="10" stroke-dasharray="" stroke-dashoffset="0" font-family="none" font-weight="none" font-size="none" text-anchor="none" style="mix-blend-mode: normal"><g transform="translate(-0.0011,-0.00263) scale(12.8,12.8)"><g id="Icons"><g transform="translate(-374,-1529)" id="Rounded"><g transform="translate(100,1428)" id="Content"><g transform="translate(272,98)" id="-Round-/-Content-/-send"><g><path d="M0,0h24v24h-24z" id="Path" fill="none"></path><path d="M3.4,20.4l17.45,-7.48c0.81,-0.35 0.81,-1.49 0,-1.84l-17.45,-7.48c-0.66,-0.29 -1.39,0.2 -1.39,0.91l-0.01,4.61c0,0.5 0.37,0.93 0.87,0.99l14.13,1.89l-14.13,1.88c-0.5,0.07 -0.87,0.5 -0.87,1l0.01,4.61c0,0.71 0.73,1.2 1.39,0.91z" id="🔹Icon-Color" fill="#7f408e"></path></g></g></g></g></g></g></g></svg>