<?xml version="1.0" encoding="iso-8859-1"?>
<!-- Generator: Adobe Illustrator 19.0.0, SVG Export Plug-In . SVG Version: 6.00 Build 0)  -->
<!-- License: CC0. Made by SVG Repo: https://www.svgrepo.com/svg/262274/gamepad-game-controller -->
<svg version="1.1" id="Layer_1" xmlns="http://www.w3.org/2000/svg" xmlns:xlink="http://www.w3.org/1999/xlink" x="0px" y="0px"
	 viewBox="0 0 512 512" style="enable-background:new 0 0 512 512;" xml:space="preserve">
<g>
	<g>
		<path d="M386.977,211.349H272.082c-3.708-17.572-12.548-28.637-19.995-37.949c-8.398-10.497-13.947-17.433-13.947-33.493
			s5.549-22.996,13.947-33.493c9.701-12.127,21.774-27.218,21.774-55.809h-35.721c0,16.06-5.549,22.996-13.947,33.493
			c-9.701,12.127-21.774,27.218-21.774,55.809c0,28.591,12.074,43.682,21.774,55.809c4.464,5.58,8.11,10.161,10.558,15.633H126.369
			c-69.17,0-125.858,55.662-126.365,124.078c-0.249,33.581,12.638,65.195,36.287,89.02c23.651,23.827,55.164,36.949,88.733,36.949
			c59.211,0,110.735-42.057,122.516-100.002c0.857-4.216,4.337-7.161,8.461-7.161c4.122,0,7.609,2.974,8.477,7.234
			c11.808,57.902,63.326,99.929,122.499,99.929c0.002,0,0,0,0.002,0c33.368,0,64.76-13.012,88.384-36.638
			c23.627-23.627,36.639-55.017,36.638-88.388C511.999,267.433,455.913,211.349,386.977,211.349z M450.104,399.499
			c-16.879,16.88-39.299,26.176-63.128,26.175c-42.27,0-79.068-30.006-87.498-71.345c-4.232-20.754-22.516-35.817-43.477-35.817
			c-20.973,0-39.253,15.041-43.465,35.765c-8.411,41.371-45.214,71.398-87.512,71.398c-23.978,0-46.487-9.373-63.381-26.392
			c-16.892-17.017-26.096-39.601-25.919-63.59c0.363-48.866,41.027-88.622,90.645-88.622h260.608
			c49.24,0,89.301,40.061,89.302,89.301C476.28,360.199,466.983,382.619,450.104,399.499z " fill="#fff" />
	</g>
</g>
<g>
	<g>
		<polygon points="142.884,318.512 142.884,288.744 107.163,288.744 107.163,318.512 77.395,318.512 77.395,354.233
			107.163,354.233 107.163,384 142.884,384 142.884,354.233 172.651,354.233 172.651,318.512 		" fill="#fff"/>
	</g>
</g>
<g>
	<g>
		<path d="M410.791,336.372c-13.131,0-23.814,10.683-23.814,23.814S397.66,384,410.791,384s23.814-10.683,23.814-23.814
			S423.922,336.372,410.791,336.372z" fill="#fff"/>
	</g>
</g>
<g>
	<g>
		<path d="M363.163,288.744c-13.131,0-23.814,10.683-23.814,23.814c0,13.131,10.683,23.814,23.814,23.814
			s23.814-10.683,23.814-23.814C386.977,299.427,376.294,288.744,363.163,288.744z" fill="#fff"/>
	</g>
</g>
</svg>
