<svg xmlns="http://www.w3.org/2000/svg" width="18.763" height="22.771" viewBox="0 0 18.763 22.771">
  <path id="Icon" d="M51.394,819.62l-.035-.352-.071-.332-.114-.311-.156-.291-.192-.264-.234-.244-.263-.224-.277-.176-.32-.149-.334-.108-.355-.068-.362-.027-.369.027-.355.068-.326.108-.312.149-.284.176-.263.224-.234.244-.185.264-.156.291-.121.311-.071.332-.021.352H39.3v20.225H58.062V819.62Zm-3.892-.23.071-.217.114-.19.142-.162.177-.142.206-.1.227-.068.242-.02.241.02.227.068.206.1.185.142.142.162.107.19.071.217.028.23H47.473Zm5.376,18.3v-2.729h2.94Zm2.94-4.137H51.38v4.171H41.543v-16h3.579V824.1h7.116v-2.377h3.579Z" transform="translate(-39.299 -817.074)" fill="#fff"/>
</svg>
