<svg xmlns="http://www.w3.org/2000/svg" width="20.1" height="23.36" viewBox="0 0 20.1 23.36">
  <path id="Icon" d="M9.658,23.338l-.372-.081-.366-.1-.353-.162-.327-.2-.3-.235-.287-.272L7.4,21.992l-.222-.33-.2-.353-.157-.382-.124-.4h6.7l-.117.4-.164.382-.189.353-.222.33-.255.294-.288.272-.306.235-.321.2-.353.162-.352.1-.386.081-.392.022ZM0,19.113v-1.7l.019-.331.069-.312.1-.3.127-.278.176-.258.2-.232.22-.2.246-.185.265-.133.29-.106.3-.066.316-.019V9.6l.025-.6.057-.583.1-.569L2.65,7.3l.176-.53.215-.523.24-.5.277-.484.3-.457.34-.424.359-.41.392-.385.41-.351L5.8,2.908l.455-.292.479-.258.5-.224.516-.185L8.284,1.8l.031-.3.069-.272L8.491.967,8.637.735,8.814.523,9.021.345,9.255.193l.252-.1L9.772.02,10.056,0l.278.02.278.073.246.1.227.152.208.178.176.212.145.232.107.265.07.272.031.3.536.146.511.185.5.224.473.258.461.292.442.325.41.351.391.385.359.41.341.424.3.457.278.484.246.5.208.523.17.53.145.556.1.569.057.583.025.6v5.391l.316.019.3.066.284.106.271.133.246.185.227.2.189.232.17.258.139.278.1.3.057.312.019.331v1.7Z" fill="#fff"/>
</svg>
